<svg width="1200" height="400" viewBox="0 0 1200 400" fill="none" xmlns="http://www.w3.org/2000/svg">
  <rect width="1200" height="400" fill="#0A0A0A"/>
  <rect x="0" y="0" width="1200" height="400" fill="url(#grad)" opacity="0.35"/>
  <defs>
    <linearGradient id="grad" x1="0" y1="0" x2="1200" y2="400" gradientUnits="userSpaceOnUse">
      <stop stop-color="#10604D"/>
      <stop offset="1" stop-color="#0A0A0A"/>
    </linearGradient>
  </defs>
  <g transform="translate(80, 100)">
    <rect width="72" height="72" rx="16" fill="#10604D"/>
    <path d="M44 26C36 14 28 35 22 41V72C-2 72 -4 23 1 1H22V41C22 33 28 11 47 1C66 -4 74 10 77 16V71C32 72 60 34 44 26Z" fill="#FAF5E6" transform="translate(14, 8) scale(0.55)"/>
    <text x="96" y="32" fill="#FAF5E6" font-family="system-ui, -apple-system, sans-serif" font-size="36" font-weight="600">Notiky</text>
    <text x="96" y="62" fill="#FAF5E6" opacity="0.75" font-family="system-ui, -apple-system, sans-serif" font-size="18">The product engineering brain</text>
    <text x="96" y="88" fill="#FAF5E6" opacity="0.5" font-family="system-ui, -apple-system, sans-serif" font-size="14">The AI workspace where products are built  from first idea to scale</text>
  </g>
  <text x="1120" y="370" text-anchor="end" fill="#FAF5E6" opacity="0.35" font-family="ui-monospace, monospace" font-size="12">notiky.com</text>
</svg>
