<svg width="6578" height="2344" viewBox="0 0 6578 2344" fill="none" xmlns="http://www.w3.org/2000/svg">
<path d="M2560 1857.4C2591.29 1857.4 2615.11 1844.6 2631.47 1819C2648.53 1792.69 2657.07 1756.78 2657.07 1711.27V1374.2C2657.07 1235.53 2624.36 1166.2 2558.93 1166.2C2528.36 1166.2 2504.53 1178.64 2487.47 1203.53C2470.4 1228.42 2461.87 1263.62 2461.87 1309.13V1655.8C2461.87 1790.2 2494.58 1857.4 2560 1857.4ZM2551.47 1985.4C2388.62 1985.4 2269.51 1948.42 2194.13 1874.47C2118.76 1800.51 2081.07 1682.47 2081.07 1520.33C2081.07 1359.62 2119.11 1238.73 2195.2 1157.67C2271.29 1075.89 2395.02 1035 2566.4 1035C2733.51 1035 2854.04 1074.11 2928 1152.33C3002.67 1229.84 3040 1347.53 3040 1505.4C3040 1668.96 3000.53 1789.84 2921.6 1868.07C2843.38 1946.29 2720 1985.4 2551.47 1985.4ZM3405.8 1985.4C3309.8 1985.4 3242.6 1956.6 3204.2 1899C3166.51 1841.4 3147.67 1743.98 3147.67 1606.73V1244.07H3074.07V1095.8L3199.93 1056.33L3308.73 807.8H3496.47V1056.33H3671.4V1244.07H3493.27V1640.87C3493.27 1697.76 3501.44 1735.44 3517.8 1753.93C3534.16 1772.42 3559.4 1781.67 3593.53 1781.67C3608.47 1781.67 3621.98 1779.89 3634.07 1776.33C3646.16 1772.78 3656.11 1767.8 3663.93 1761.4V1906.47C3653.27 1917.13 3639.4 1927.8 3622.33 1938.47C3605.27 1948.42 3576.82 1958.73 3537 1969.4C3497.89 1980.07 3454.16 1985.4 3405.8 1985.4ZM3765.58 1963V1272.87L3701.58 1233.4V1119.27L3930.91 1056.33H4109.04V1963H3765.58ZM3920.24 958.2L3745.31 782.2V744.867L3920.24 569.933H3960.77L4143.17 744.867V782.2L3960.77 958.2H3920.24ZM4775.67 1963L4610.33 1526.73L4785.27 1056.33H5185.27L4905.8 1475.53L5191.67 1963H4775.67ZM4241.27 1963V756.6L4177.27 718.2V619L4519.67 565.667H4589V1963H4241.27ZM5668.53 2329.93C5595.29 2329.93 5526.31 2319.27 5461.6 2297.93C5396.89 2276.6 5349.6 2247.8 5319.73 2211.53L5375.2 2096.33C5416.44 2119.8 5481.87 2131.53 5571.47 2131.53C5599.91 2131.53 5624.44 2128.33 5645.07 2121.93C5665.69 2115.53 5684.18 2104.16 5700.53 2087.8C5716.89 2072.16 5729.33 2049.76 5737.87 2020.6C5746.4 1991.44 5751.02 1955.53 5751.73 1912.87V1821.13L5741.07 1838.2C5733.96 1849.58 5722.93 1863.44 5708 1879.8C5693.78 1895.44 5677.42 1911.44 5658.93 1927.8C5640.44 1943.44 5617.69 1956.96 5590.67 1968.33C5564.36 1979.71 5537.33 1985.4 5509.6 1985.4C5403.64 1985.4 5328.98 1955.89 5285.6 1896.87C5242.22 1837.13 5220.53 1736.87 5220.53 1596.07V1217.4L5182.13 1179V1056.33H5570.4V1663.27C5570.4 1695.98 5575.38 1720.16 5585.33 1735.8C5596 1750.73 5616.98 1758.2 5648.27 1758.2C5657.51 1758.2 5666.76 1756.78 5676 1753.93C5685.24 1750.38 5694.13 1745.76 5702.67 1740.07C5711.91 1734.38 5721.51 1727.27 5731.47 1718.73V1217.4L5672.8 1179V1056.33H6079.2V1838.2C6079.2 1995.36 6045.78 2116.6 5978.93 2201.93C5912.09 2287.27 5808.62 2329.93 5668.53 2329.93ZM6330.62 1983.27L6155.69 1807.27V1769.93L6330.62 1595H6371.16L6553.56 1769.93V1807.27L6371.16 1983.27H6330.62Z" fill="#FAF5E6"/>
<path d="M1321.98 805.2C1052.27 332.687 771.534 964.469 567.618 1148.32V2182.32C-11.4942 2182.32 -59.8602 854.017 42.7514 189.864H567.618V1148.32C567.618 900.09 690 326.324 1182.7 189.864C1684.93 50.762 1894.25 449.776 1976.12 634.529V2170.43C749 2182.32 1502.53 1184.74 1321.98 805.2Z" fill="#FAF5E6"/>
</svg>
